HIERARCHY
ROOT Hips
{
	OFFSET 0.000000 0.000000 0.000000
	CHANNELS 6 Xposition Yposition Zposition Zrotation Yrotation Xrotation 
	JOINT Spine1
	{
		OFFSET -0.013727 5.003763 -0.053727
		CHANNELS 3 Zrotation Yrotation Xrotation
		JOINT Spine2
		{
			OFFSET -0.000000 7.125302 -0.029825
			CHANNELS 3 Zrotation Yrotation Xrotation
			JOINT Chest
			{
				OFFSET -0.000001 7.550064 -0.815971
				CHANNELS 3 Zrotation Yrotation Xrotation
				JOINT Neck1
				{
					OFFSET -0.181676 26.311296 -0.553348
					CHANNELS 3 Zrotation Yrotation Xrotation
					JOINT Neck2
					{
						OFFSET -0.000003 7.709400 2.302586
						CHANNELS 3 Zrotation Yrotation Xrotation
						JOINT Head
						{
							OFFSET -0.000005 6.128912 1.953709
							CHANNELS 3 Zrotation Yrotation Xrotation
							JOINT HeadEnd
							{
								OFFSET 0.003598 16.065403 -1.835379
								CHANNELS 3 Zrotation Yrotation Xrotation
								End Site
								{
									OFFSET 0.000000 0.000000 0.000000
								}
							}
							JOINT Jaw
							{
								OFFSET 0.002637 0.475591 3.094941
								CHANNELS 3 Zrotation Yrotation Xrotation
								End Site
								{
									OFFSET 0.000000 0.000000 0.000000
								}
							}
							JOINT LeftEye
							{
								OFFSET 3.206381 5.380207 7.586883
								CHANNELS 3 Zrotation Yrotation Xrotation
								End Site
								{
									OFFSET 0.000000 0.000000 0.000000
								}
							}
							JOINT RightEye
							{
								OFFSET -3.222440 5.361868 7.558234
								CHANNELS 3 Zrotation Yrotation Xrotation
								End Site
								{
									OFFSET 0.000000 0.000000 0.000000
								}
							}
						}
					}
				}
				JOINT LeftShoulder
				{
					OFFSET 1.621652 23.237165 5.113413
					CHANNELS 3 Zrotation Yrotation Xrotation
					JOINT LeftArm
					{
						OFFSET 14.919845 -0.000000 -5.502326
						CHANNELS 3 Zrotation Yrotation Xrotation
						JOINT LeftForeArm
						{
							OFFSET 28.739309 0.000002 -0.002588
							CHANNELS 3 Zrotation Yrotation Xrotation
							JOINT LeftHand
							{
								OFFSET 27.093983 -0.000003 0.002609
								CHANNELS 3 Zrotation Yrotation Xrotation
								JOINT LeftHandThumb1
								{
									OFFSET 2.276481 -1.392046 3.191413
									CHANNELS 3 Zrotation Yrotation Xrotation
									JOINT LeftHandThumb2
									{
										OFFSET 4.012841 -1.828126 1.641655
										CHANNELS 3 Zrotation Yrotation Xrotation
										JOINT LeftHandThumb3
										{
											OFFSET 2.798517 0.000001 -0.000003
											CHANNELS 3 Zrotation Yrotation Xrotation
											JOINT LeftHandThumbEnd
											{
												OFFSET 3.180791 -0.000002 0.000002
												CHANNELS 3 Zrotation Yrotation Xrotation
												End Site
												{
													OFFSET 0.000000 0.000000 0.000000
												}
											}
										}
									}
								}
								JOINT LeftHandIndex1
								{
									OFFSET 3.247554 -0.531998 2.296169
									CHANNELS 3 Zrotation Yrotation Xrotation
									JOINT LeftHandIndex2
									{
										OFFSET 6.364580 0.012063 0.178600
										CHANNELS 3 Zrotation Yrotation Xrotation
										JOINT LeftHandIndex3
										{
											OFFSET 3.662367 0.000001 0.000000
											CHANNELS 3 Zrotation Yrotation Xrotation
											JOINT LeftHandIndex4
											{
												OFFSET 2.329242 0.000001 0.000003
												CHANNELS 3 Zrotation Yrotation Xrotation
												JOINT LeftHandIndexEnd
												{
													OFFSET 2.759619 -0.180539 -0.113023
													CHANNELS 3 Zrotation Yrotation Xrotation
													End Site
													{
														OFFSET 0.000000 0.000000 0.000000
													}
												}
											}
										}
									}
								}
								JOINT LeftHandMiddle1
								{
									OFFSET 3.163498 0.240982 1.000332
									CHANNELS 3 Zrotation Yrotation Xrotation
									JOINT LeftHandMiddle2
									{
										OFFSET 6.190778 -0.259276 -1.002548
										CHANNELS 3 Zrotation Yrotation Xrotation
										JOINT LeftHandMiddle3
										{
											OFFSET 4.356522 -0.000007 0.000000
											CHANNELS 3 Zrotation Yrotation Xrotation
											JOINT LeftHandMiddle4
											{
												OFFSET 2.996875 -0.000006 0.000001
												CHANNELS 3 Zrotation Yrotation Xrotation
												JOINT LeftHandMiddleEnd
												{
													OFFSET 2.304294 -0.294572 -0.031740
													CHANNELS 3 Zrotation Yrotation Xrotation
													End Site
													{
														OFFSET 0.000000 0.000000 0.000000
													}
												}
											}
										}
									}
								}
								JOINT LeftHandRing1
								{
									OFFSET 2.882642 -0.053650 -0.322543
									CHANNELS 3 Zrotation Yrotation Xrotation
									JOINT LeftHandRing2
									{
										OFFSET 5.854543 -0.486203 -1.373842
										CHANNELS 3 Zrotation Yrotation Xrotation
										JOINT LeftHandRing3
										{
											OFFSET 4.350580 0.000000 0.000003
											CHANNELS 3 Zrotation Yrotation Xrotation
											JOINT LeftHandRing4
											{
												OFFSET 2.651324 0.000007 0.000003
												CHANNELS 3 Zrotation Yrotation Xrotation
												JOINT LeftHandRingEnd
												{
													OFFSET 1.936110 0.077686 -0.000069
													CHANNELS 3 Zrotation Yrotation Xrotation
													End Site
													{
														OFFSET 0.000000 0.000000 0.000000
													}
												}
											}
										}
									}
								}
								JOINT LeftHandPinky1
								{
									OFFSET 2.865499 -0.310004 -1.600378
									CHANNELS 3 Zrotation Yrotation Xrotation
									JOINT LeftHandPinky2
									{
										OFFSET 5.087852 -1.331142 -1.771231
										CHANNELS 3 Zrotation Yrotation Xrotation
										JOINT LeftHandPinky3
										{
											OFFSET 3.070976 0.000004 0.000001
											CHANNELS 3 Zrotation Yrotation Xrotation
											JOINT LeftHandPinky4
											{
												OFFSET 1.549667 -0.000000 0.000000
												CHANNELS 3 Zrotation Yrotation Xrotation
												JOINT LeftHandPinkyEnd
												{
													OFFSET 1.944894 -0.157802 0.057219
													CHANNELS 3 Zrotation Yrotation Xrotation
													End Site
													{
														OFFSET 0.000000 0.000000 0.000000
													}
												}
											}
										}
									}
								}
							}
						}
					}
				}
				JOINT RightShoulder
				{
					OFFSET -1.380118 23.180309 5.214158
					CHANNELS 3 Zrotation Yrotation Xrotation
					JOINT RightArm
					{
						OFFSET -15.037197 0.000011 -5.545604
						CHANNELS 3 Zrotation Yrotation Xrotation
						JOINT RightForeArm
						{
							OFFSET -28.736639 0.000003 -0.002597
							CHANNELS 3 Zrotation Yrotation Xrotation
							JOINT RightHand
							{
								OFFSET -27.133614 -0.000000 0.002613
								CHANNELS 3 Zrotation Yrotation Xrotation
								JOINT RightHandThumb1
								{
									OFFSET -2.274037 -1.383990 3.163127
									CHANNELS 3 Zrotation Yrotation Xrotation
									JOINT RightHandThumb2
									{
										OFFSET -4.011428 -1.827468 1.640914
										CHANNELS 3 Zrotation Yrotation Xrotation
										JOINT RightHandThumb3
										{
											OFFSET -2.794934 -0.000004 -0.000003
											CHANNELS 3 Zrotation Yrotation Xrotation
											JOINT RightHandThumbEnd
											{
												OFFSET -3.183856 0.000003 0.000000
												CHANNELS 3 Zrotation Yrotation Xrotation
												End Site
												{
													OFFSET 0.000000 0.000000 0.000000
												}
											}
										}
									}
								}
								JOINT RightHandIndex1
								{
									OFFSET -3.253269 -0.520060 2.282866
									CHANNELS 3 Zrotation Yrotation Xrotation
									JOINT RightHandIndex2
									{
										OFFSET -6.341918 0.012472 0.178266
										CHANNELS 3 Zrotation Yrotation Xrotation
										JOINT RightHandIndex3
										{
											OFFSET -3.654872 -0.000009 -0.000001
											CHANNELS 3 Zrotation Yrotation Xrotation
											JOINT RightHandIndex4
											{
												OFFSET -2.327587 0.000000 0.000000
												CHANNELS 3 Zrotation Yrotation Xrotation
												JOINT RightHandIndexEnd
												{
													OFFSET -2.761789 -0.180657 -0.113079
													CHANNELS 3 Zrotation Yrotation Xrotation
													End Site
													{
														OFFSET 0.000000 0.000000 0.000000
													}
												}
											}
										}
									}
								}
								JOINT RightHandMiddle1
								{
									OFFSET -3.168106 0.246593 1.001030
									CHANNELS 3 Zrotation Yrotation Xrotation
									JOINT RightHandMiddle2
									{
										OFFSET -6.180830 -0.258836 -1.000896
										CHANNELS 3 Zrotation Yrotation Xrotation
										JOINT RightHandMiddle3
										{
											OFFSET -4.348906 -0.000000 -0.000000
											CHANNELS 3 Zrotation Yrotation Xrotation
											JOINT RightHandMiddle4
											{
												OFFSET -3.000243 -0.000003 -0.000002
												CHANNELS 3 Zrotation Yrotation Xrotation
												JOINT RightHandMiddleEnd
												{
													OFFSET -2.302517 -0.294372 -0.031706
													CHANNELS 3 Zrotation Yrotation Xrotation
													End Site
													{
														OFFSET 0.000000 0.000000 0.000000
													}
												}
											}
										}
									}
								}
								JOINT RightHandRing1
								{
									OFFSET -2.885694 -0.067952 -0.308858
									CHANNELS 3 Zrotation Yrotation Xrotation
									JOINT RightHandRing2
									{
										OFFSET -5.854196 -0.486132 -1.373732
										CHANNELS 3 Zrotation Yrotation Xrotation
										JOINT RightHandRing3
										{
											OFFSET -4.338814 -0.000004 -0.000000
											CHANNELS 3 Zrotation Yrotation Xrotation
											JOINT RightHandRing4
											{
												OFFSET -2.654906 -0.000004 0.000004
												CHANNELS 3 Zrotation Yrotation Xrotation
												JOINT RightHandRingEnd
												{
													OFFSET -1.933570 0.077523 -0.000052
													CHANNELS 3 Zrotation Yrotation Xrotation
													End Site
													{
														OFFSET 0.000000 0.000000 0.000000
													}
												}
											}
										}
									}
								}
								JOINT RightHandPinky1
								{
									OFFSET -2.866429 -0.342798 -1.584145
									CHANNELS 3 Zrotation Yrotation Xrotation
									JOINT RightHandPinky2
									{
										OFFSET -5.091369 -1.332054 -1.772385
										CHANNELS 3 Zrotation Yrotation Xrotation
										JOINT RightHandPinky3
										{
											OFFSET -3.062664 -0.000007 0.000001
											CHANNELS 3 Zrotation Yrotation Xrotation
											JOINT RightHandPinky4
											{
												OFFSET -1.546527 0.000006 -0.000002
												CHANNELS 3 Zrotation Yrotation Xrotation
												JOINT RightHandPinkyEnd
												{
													OFFSET -1.945122 -0.157722 0.057211
													CHANNELS 3 Zrotation Yrotation Xrotation
													End Site
													{
														OFFSET 0.000000 0.000000 0.000000
													}
												}
											}
										}
									}
								}
							}
						}
					}
				}
			}
		}
	}
	JOINT LeftLeg
	{
		OFFSET 10.043214 -8.434526 2.595655
		CHANNELS 3 Zrotation Yrotation Xrotation
		JOINT LeftShin
		{
			OFFSET -0.000002 -43.221752 -0.802913
			CHANNELS 3 Zrotation Yrotation Xrotation
			JOINT LeftFoot
			{
				OFFSET 0.000001 -42.155094 -3.481523
				CHANNELS 3 Zrotation Yrotation Xrotation
				JOINT LeftToeBase
				{
					OFFSET 0.000000 -5.059474 13.231529
					CHANNELS 3 Zrotation Yrotation Xrotation
					JOINT LeftToeEnd
					{
						OFFSET -0.009607 -1.647615 6.513017
						CHANNELS 3 Zrotation Yrotation Xrotation
						End Site
						{
							OFFSET 0.000000 0.000000 0.000000
						}
					}
				}
			}
		}
	}
	JOINT RightLeg
	{
		OFFSET -10.047277 -8.295259 2.620317
		CHANNELS 3 Zrotation Yrotation Xrotation
		JOINT RightShin
		{
			OFFSET 0.000001 -43.362209 -0.805556
			CHANNELS 3 Zrotation Yrotation Xrotation
			JOINT RightFoot
			{
				OFFSET 0.000003 -42.117393 -3.478399
				CHANNELS 3 Zrotation Yrotation Xrotation
				JOINT RightToeBase
				{
					OFFSET -0.000001 -5.079608 13.284196
					CHANNELS 3 Zrotation Yrotation Xrotation
					JOINT RightToeEnd
					{
						OFFSET 0.009532 -1.634383 6.460591
						CHANNELS 3 Zrotation Yrotation Xrotation
						End Site
						{
							OFFSET 0.000000 0.000000 0.000000
						}
					}
				}
			}
		}
	}
}
MOTION
Frames: 4
Frame Time: 0.033333
-1.338859 94.921616 -0.965257 -1.569818 -0.396075 -4.032673 1.783576 0.574825 1.343150 0.165143 1.838745 -4.181754 2.721405 0.385042 7.062273 -3.930575 5.388754 12.929178 -0.480694 0.736152 -3.559318 -2.064032 1.413146 -7.272805 0.000077 -0.000023 0.000006 0.016715 -0.051472 -0.008596 0.780729 -3.791525 -10.732980 -0.757764 3.693489 -10.655659 -9.887015 -12.467333 4.664626 -45.921028 -44.688675 -17.323465 176.883347 -59.732693 -176.782196 -0.912895 4.712428 -14.137796 -5.882102 9.861278 0.702591 -10.936861 -0.360575 7.156198 0.000000 8.774811 0.000000 -16.357431 18.865503 6.483267 -1.844029 2.498503 -2.507276 -10.163591 4.678940 4.621105 -20.976000 -0.000002 0.000004 -21.226259 2.451694 -3.593992 0.000000 -0.000006 -0.000002 -1.362681 2.240794 -0.746322 -21.334892 0.584910 3.008320 -13.821200 -0.000002 0.000002 -23.887136 -0.249078 -0.839481 -61.898830 3.011828 -1.539235 -0.294025 1.679687 0.833255 -14.218192 0.093214 1.300579 -34.212006 -0.287562 0.967171 -20.033180 0.964536 1.212842 0.000000 0.000000 0.000000 -3.440386 0.788231 0.501656 -15.928171 -3.167305 2.999704 -6.338818 -0.000001 0.000002 -18.123415 3.648176 -4.905659 -0.000004 -0.000000 -0.000003 3.277591 24.244677 6.644467 53.008675 41.461365 -5.950716 -176.159286 54.335148 -177.221573 -20.023458 7.139359 -25.573843 2.243540 -5.255033 -3.180154 14.282877 -0.826596 6.952497 0.000001 -12.690590 -0.000001 15.602160 -17.945213 3.182739 1.665665 -1.955920 -2.878295 4.727794 -4.170584 4.993916 11.020513 0.000000 -0.000003 12.109033 -3.735710 -2.866780 0.000000 -0.000001 -0.000001 1.291985 -1.928548 -1.498088 14.800111 0.567466 3.865604 14.242554 -1.341737 -6.660648 19.631939 0.143925 -0.648246 49.077518 -0.681229 -6.097525 0.353029 -1.511150 -0.031941 20.222765 3.684303 2.316629 18.787245 0.000003 -0.000001 10.751611 -0.479868 1.397903 -0.000000 0.000002 -0.000001 3.273804 0.305946 -0.580110 21.486790 11.830360 2.266129 8.162916 0.000001 -0.000003 18.399055 -3.798980 -4.940569 0.000003 -0.000001 -0.000000 8.515388 2.625950 -22.716852 -0.088452 -0.310899 37.669144 -10.857409 9.041220 -9.872252 1.621030 -1.954649 -0.010978 -0.000000 -0.000000 0.000002 -6.475151 -1.111847 5.985763 -0.000986 0.405273 22.810192 11.222433 -4.701510 -21.763384 -1.443480 1.053603 -1.190284 -0.000000 0.000000 -0.000001 
-1.406292 95.019386 -1.041571 -1.508693 -0.888384 -3.842285 1.733103 0.603094 1.319127 0.177842 1.901607 -4.151435 2.767334 0.524620 6.939356 -4.102498 5.291455 12.543252 -0.481694 0.817339 -3.546230 -1.953440 1.587369 -7.165587 0.000077 -0.000023 0.000006 0.019834 -0.040908 -0.000212 0.778793 -3.779499 -10.689871 -0.750962 3.700840 -10.632215 -10.227987 -12.201424 4.472753 -45.662060 -44.593483 -17.542978 177.026520 -59.825233 -177.132492 -0.951684 4.276737 -13.783887 -5.882099 9.861279 0.702589 -10.936859 -0.360575 7.156196 0.000001 8.774817 -0.000002 -16.338377 18.767153 6.426823 -1.844031 2.498502 -2.507275 -10.163587 4.678939 4.621103 -20.975994 -0.000006 0.000002 -21.226248 2.451690 -3.593994 0.000000 -0.000006 -0.000001 -1.362679 2.240795 -0.746322 -21.334892 0.584905 3.008320 -13.821197 -0.000004 0.000001 -23.887129 -0.249082 -0.839482 -61.740028 2.890341 -1.527001 -0.294024 1.679687 0.833256 -14.218194 0.093213 1.300577 -34.212002 -0.287568 0.967170 -20.033178 0.964533 1.212842 -0.000000 -0.000000 0.000001 -3.440384 0.788232 0.501655 -15.928167 -3.167307 2.999701 -6.338817 -0.000002 0.000001 -18.123411 3.648174 -4.905662 -0.000004 -0.000001 -0.000002 3.374518 24.499195 6.721665 52.728085 41.227974 -6.080627 -176.611710 54.352226 -177.493027 -20.486559 7.790431 -26.638828 2.243540 -5.255033 -3.180154 14.282875 -0.826592 6.952495 -0.000004 -12.690591 0.000001 15.504003 -17.914745 3.209874 1.665665 -1.955920 -2.878297 4.727793 -4.170582 4.993919 11.020511 0.000004 -0.000001 12.109028 -3.735709 -2.866778 0.000000 0.000000 -0.000001 1.291985 -1.928548 -1.498087 14.800114 0.567468 3.865602 14.242553 -1.341733 -6.660650 19.631939 0.143927 -0.648241 49.075317 -0.726443 -6.168708 0.353029 -1.511149 -0.031941 20.222771 3.684307 2.316625 18.787245 0.000006 0.000001 10.751607 -0.479867 1.397904 -0.000001 0.000001 -0.000002 3.273804 0.305947 -0.580110 21.486790 11.830363 2.266129 8.162917 0.000003 -0.000001 18.399054 -3.798980 -4.940568 0.000003 0.000000 0.000000 8.549932 3.083830 -22.739630 -0.113842 -0.315736 37.463852 -11.050169 9.313560 -9.553052 1.625362 -1.978939 -0.170746 0.000000 -0.000000 0.000002 -6.598384 -1.146151 5.610897 -0.017058 0.406441 22.802694 10.991751 -4.337626 -21.485861 -1.443180 1.010917 -1.339442 0.000000 0.000000 -0.000001 
-1.480104 94.976074 -1.118478 -1.448109 -1.520178 -3.710593 1.670028 0.622445 1.296331 0.167701 2.005427 -4.121346 2.773986 0.690990 6.855152 -4.240843 5.222424 12.223245 -0.412719 0.984610 -3.572696 -1.852129 1.822005 -7.078580 0.000077 -0.000022 0.000006 0.021916 -0.066675 -0.000049 0.774273 -3.801750 -10.671464 -0.742803 3.667352 -10.629205 -10.422636 -11.917446 4.298368 -45.242939 -44.433121 -18.166719 177.488174 -59.915878 -177.647400 -0.973966 3.915248 -13.303707 -5.882100 9.861278 0.702590 -10.936858 -0.360574 7.156196 0.000001 8.774815 -0.000002 -16.215868 18.655680 6.433537 -1.844030 2.498502 -2.507276 -10.163588 4.678939 4.621103 -20.975998 -0.000001 0.000002 -21.226254 2.451693 -3.593994 0.000000 -0.000006 -0.000002 -1.362680 2.240797 -0.746324 -21.334892 0.584908 3.008318 -13.821197 -0.000002 0.000001 -23.887133 -0.249078 -0.839481 -61.551086 2.844182 -1.487070 -0.294023 1.679685 0.833255 -14.218194 0.093213 1.300578 -34.212006 -0.287565 0.967168 -20.033180 0.964534 1.212840 0.000000 0.000000 0.000001 -3.440385 0.788232 0.501655 -15.928167 -3.167306 2.999703 -6.338815 -0.000001 0.000001 -18.123413 3.648175 -4.905663 -0.000003 -0.000001 -0.000001 3.510398 24.685673 6.786483 52.602005 41.135120 -5.962030 -176.995865 54.438251 -177.618820 -21.103668 8.370159 -28.056982 2.243540 -5.255033 -3.180155 14.282875 -0.826594 6.952493 -0.000001 -12.690588 -0.000002 15.449390 -17.902117 3.263906 1.665665 -1.955920 -2.878298 4.727794 -4.170584 4.993919 11.020512 0.000002 -0.000002 12.109030 -3.735708 -2.866779 0.000001 -0.000000 -0.000002 1.291985 -1.928548 -1.498088 14.800113 0.567466 3.865604 14.242554 -1.341737 -6.660651 19.631939 0.143924 -0.648244 49.124496 -0.747548 -6.204276 0.353029 -1.511149 -0.031940 20.222767 3.684304 2.316628 18.787245 0.000002 -0.000001 10.751610 -0.479868 1.397904 -0.000000 0.000002 -0.000000 3.273804 0.305946 -0.580111 21.486788 11.830360 2.266132 8.162916 0.000002 -0.000002 18.399052 -3.798980 -4.940570 0.000003 -0.000001 -0.000001 8.607327 3.773737 -22.878981 -0.127117 -0.326622 37.685749 -11.409730 9.356046 -9.570036 1.630083 -2.001656 -0.311016 0.000000 -0.000000 0.000002 -6.768195 -1.192800 4.977087 -0.018499 0.419319 23.423513 10.729824 -3.641076 -21.634293 -1.443414 0.956524 -1.433323 0.000000 0.000000 -0.000001 
-1.571029 94.773872 -1.134087 -1.455785 -2.343804 -3.653700 1.613949 0.667166 1.284193 0.145231 2.061428 -4.091835 2.770868 0.854105 6.817190 -4.323821 5.119060 11.902843 -0.307029 1.252063 -3.591891 -1.775612 2.099942 -7.051589 0.000077 -0.000022 0.000006 0.024184 -0.081432 -0.003359 0.771155 -3.813458 -10.669024 -0.733008 3.649610 -10.631740 -10.462153 -11.621208 4.169763 -44.718048 -44.155903 -19.123638 178.191879 -59.991188 -178.365509 -0.922285 3.621759 -12.653893 -5.882102 9.861278 0.702590 -10.936862 -0.360573 7.156198 0.000000 8.774814 -0.000002 -16.071575 18.501516 6.475057 -1.844029 2.498503 -2.507276 -10.163592 4.678940 4.621104 -20.975996 -0.000004 0.000004 -21.226255 2.451693 -3.593992 0.000000 -0.000006 0.000000 -1.362679 2.240796 -0.746322 -21.334887 0.584906 3.008323 -13.821197 -0.000002 0.000002 -23.887131 -0.249077 -0.839478 -61.327301 2.865382 -1.438801 -0.294025 1.679686 0.833255 -14.218195 0.093215 1.300581 -34.212006 -0.287562 0.967173 -20.033180 0.964536 1.212841 0.000000 0.000000 0.000001 -3.440385 0.788231 0.501655 -15.928167 -3.167306 2.999705 -6.338817 -0.000002 0.000002 -18.123413 3.648177 -4.905659 -0.000003 -0.000000 -0.000003 3.556925 24.835411 6.763749 52.624866 41.123032 -5.879421 -177.616577 54.485859 -177.964142 -21.831482 8.775176 -29.786720 2.243540 -5.255033 -3.180156 14.282878 -0.826593 6.952496 -0.000002 -12.690590 -0.000001 15.457347 -17.861780 3.257820 1.665665 -1.955920 -2.878298 4.727795 -4.170582 4.993916 11.020513 0.000003 0.000000 12.109033 -3.735710 -2.866779 0.000000 -0.000000 0.000000 1.291984 -1.928548 -1.498089 14.800117 0.567468 3.865605 14.242553 -1.341737 -6.660645 19.631941 0.143922 -0.648241 49.207569 -0.715902 -6.248718 0.353029 -1.511149 -0.031939 20.222773 3.684307 2.316628 18.787247 0.000004 0.000002 10.751610 -0.479867 1.397904 -0.000002 0.000003 -0.000000 3.273805 0.305947 -0.580111 21.486794 11.830361 2.266134 8.162917 0.000003 -0.000001 18.399059 -3.798977 -4.940568 0.000003 -0.000001 -0.000001 8.797083 4.503284 -23.165846 -0.129531 -0.332846 38.554344 -11.901223 9.312844 -9.966990 1.631757 -2.028359 -0.469786 0.000000 0.000001 0.000002 -6.891427 -1.159098 4.096880 -0.008665 0.422660 24.759392 10.612321 -2.702703 -22.170288 -1.448910 0.929151 -1.507720 0.000000 0.000001 -0.000001 
